<svg width="17" height="22" viewBox="0 0 17 22" fill="none" xmlns="http://www.w3.org/2000/svg">
<g clip-path="url(#clip0_95_718)">
<path d="M9.26836 21.5057C11.4727 18.7399 16.5 12.0366 16.5 8.27141C16.5 3.7049 12.8047 0 8.25 0C3.69531 0 0 3.7049 0 8.27141C0 12.0366 5.02734 18.7399 7.23164 21.5057C7.76016 22.1648 8.73984 22.1648 9.26836 21.5057ZM8.25 5.51427C8.97935 5.51427 9.67882 5.80475 10.1945 6.32182C10.7103 6.83888 11 7.54017 11 8.27141C11 9.00264 10.7103 9.70393 10.1945 10.221C9.67882 10.7381 8.97935 11.0285 8.25 11.0285C7.52065 11.0285 6.82118 10.7381 6.30546 10.221C5.78973 9.70393 5.5 9.00264 5.5 8.27141C5.5 7.54017 5.78973 6.83888 6.30546 6.32182C6.82118 5.80475 7.52065 5.51427 8.25 5.51427Z" fill="#CA2222"/>
</g>
<defs>
<clipPath id="clip0_95_718">
<rect width="16.5" height="22" fill="white"/>
</clipPath>
</defs>
</svg>
