<svg width="17" height="22" viewBox="0 0 17 22" fill="none" xmlns="http://www.w3.org/2000/svg">
<g clip-path="url(#clip0_96_872)">
<path d="M16.0961 5.09614C16.6332 4.55903 16.6332 3.68677 16.0961 3.14966C15.559 2.61255 14.6867 2.61255 14.1496 3.14966L0.399597 16.8997C-0.137512 17.4368 -0.137512 18.309 0.399597 18.8461C0.936707 19.3833 1.80897 19.3833 2.34608 18.8461L16.0961 5.09614ZM5.49999 5.50005C5.49999 4.7707 5.21026 4.07123 4.69453 3.5555C4.17881 3.03978 3.47933 2.75005 2.74999 2.75005C2.02064 2.75005 1.32117 3.03978 0.805444 3.5555C0.289719 4.07123 -1.22152e-05 4.7707 -1.22152e-05 5.50005C-1.22152e-05 6.22939 0.289719 6.92887 0.805444 7.44459C1.32117 7.96032 2.02064 8.25005 2.74999 8.25005C3.47933 8.25005 4.17881 7.96032 4.69453 7.44459C5.21026 6.92887 5.49999 6.22939 5.49999 5.50005ZM16.5 16.5C16.5 15.7707 16.2103 15.0712 15.6945 14.5555C15.1788 14.0398 14.4793 13.75 13.75 13.75C13.0206 13.75 12.3212 14.0398 11.8054 14.5555C11.2897 15.0712 11 15.7707 11 16.5C11 17.2294 11.2897 17.9289 11.8054 18.4446C12.3212 18.9603 13.0206 19.25 13.75 19.25C14.4793 19.25 15.1788 18.9603 15.6945 18.4446C16.2103 17.9289 16.5 17.2294 16.5 16.5Z" fill="#CA2222"/>
</g>
<defs>
<clipPath id="clip0_96_872">
<rect width="16.5" height="22" fill="white"/>
</clipPath>
</defs>
</svg>
