<svg width="18" height="20" viewBox="0 0 18 20" fill="none" xmlns="http://www.w3.org/2000/svg">
<g clip-path="url(#clip0_23_171)">
<path d="M15.3188 17.043H12.656V12.403C12.656 11.296 12.6353 9.872 11.2679 9.872C9.8799 9.872 9.66774 11.076 9.66774 12.321V17.043H7.00583V7.5H9.56256V8.8H9.59762C9.95451 8.05 10.8238 7.26 12.122 7.26C14.8198 7.26 15.3188 9.234 15.3188 11.805V17.043ZM3.99781 6.194C3.14017 6.194 2.45155 5.423 2.45155 4.474C2.45155 3.525 3.14107 2.754 3.99781 2.754C4.4079 2.754 4.8012 2.93521 5.09118 3.25778C5.38116 3.58034 5.54407 4.01783 5.54407 4.474C5.54407 4.93017 5.38116 5.36766 5.09118 5.69022C4.8012 6.01279 4.4079 6.194 3.99781 6.194ZM5.33191 17.044H2.66191V7.5H5.33191V17.044ZM16.6511 0H1.32691C0.593333 0 0 0.645 0 1.44V18.56C0 19.355 0.593333 20 1.32691 20H16.6475C17.3802 20 17.9798 19.356 17.9798 18.56V1.44C17.9798 0.646 17.3802 0 16.6475 0H16.6511Z" fill="white"/>
</g>
<defs>
<clipPath id="clip0_23_171">
<rect width="17.9798" height="20" fill="white"/>
</clipPath>
</defs>
</svg>
