<?xml version="1.0" standalone="no"?>
<!DOCTYPE svg PUBLIC "-//W3C//DTD SVG 20010904//EN"
 "http://www.w3.org/TR/2001/REC-SVG-20010904/DTD/svg10.dtd">
<svg version="1.0" xmlns="http://www.w3.org/2000/svg"
 width="2048.000000pt" height="2048.000000pt" viewBox="0 0 2048.000000 2048.000000"
 preserveAspectRatio="xMidYMid meet">

<g transform="translate(0.000000,2048.000000) scale(0.100000,-0.100000)"
fill="#000000" stroke="none">
<path d="M9815 17739 c-342 -17 -604 -44 -1135 -120 -1138 -161 -1926 -336
-2850 -633 -538 -172 -839 -294 -1385 -560 -194 -95 -235 -118 -259 -151 l-29
-38 22 -240 c12 -131 21 -240 19 -242 -2 -1 -192 -64 -423 -140 -231 -75 -435
-144 -453 -152 -18 -9 -35 -25 -38 -37 -2 -11 23 -236 56 -500 34 -263 60
-479 58 -480 -2 -1 -59 -33 -128 -71 -178 -97 -505 -294 -645 -389 -250 -169
-408 -309 -898 -795 -291 -290 -327 -329 -327 -357 0 -57 3 -57 302 -45 345
14 484 5 659 -43 131 -36 377 -122 393 -137 6 -5 5 -29 -3 -61 -57 -241 -118
-525 -147 -688 -46 -257 -174 -1149 -174 -1209 0 -51 20 -81 54 -81 10 0 100
80 200 178 277 271 464 421 635 507 188 94 929 355 1010 355 78 0 78 -32 -5
670 -40 344 -74 635 -74 646 0 18 22 31 127 79 70 32 133 60 140 62 9 3 13 -4
13 -20 0 -44 69 -442 121 -697 75 -364 160 -694 364 -1405 237 -828 279 -963
502 -1647 l126 -387 -28 -68 c-170 -408 -308 -684 -660 -1318 -87 -156 -128
-240 -128 -262 -1 -35 23 -69 57 -79 63 -19 542 -252 1264 -613 l813 -406 41
-75 c150 -272 346 -587 515 -825 91 -129 413 -565 460 -624 24 -29 42 -56 39
-58 -6 -6 -436 112 -701 192 -217 66 -774 250 -1197 396 -230 79 -238 82 -238
108 0 14 16 233 35 486 27 370 32 464 22 484 -10 21 -37 32 -182 77 -468 143
-587 207 -939 510 -83 70 -183 160 -223 201 -40 40 -77 73 -81 73 -25 0 -52
-34 -52 -64 0 -35 61 -441 111 -741 28 -168 115 -575 159 -745 10 -41 18 -75
17 -76 -1 -1 -90 -11 -197 -23 -217 -23 -732 -55 -765 -47 -30 8 -65 -20 -65
-51 0 -30 92 -128 355 -376 357 -338 488 -428 943 -656 100 -50 182 -94 182
-98 0 -5 -18 -189 -40 -410 -44 -432 -44 -430 8 -457 85 -43 1286 -444 1759
-586 556 -169 1157 -296 1953 -414 725 -108 768 -111 1670 -111 902 0 945 3
1670 111 1137 169 1669 302 2985 746 634 214 738 253 758 280 18 24 18 33 -17
389 -20 200 -39 385 -42 411 l-6 46 219 111 c235 118 443 239 545 317 112 86
297 254 510 463 175 171 208 208 208 232 0 31 -40 66 -60 54 -6 -4 -104 -2
-218 5 -422 22 -742 55 -742 75 0 7 20 97 44 201 85 364 121 558 201 1080 42
281 43 298 11 319 -29 19 -56 9 -82 -31 -31 -47 -385 -350 -541 -462 -130 -95
-328 -181 -626 -271 -89 -27 -169 -52 -178 -56 -38 -15 -38 -38 -3 -506 18
-250 34 -468 34 -486 0 -31 -1 -32 -102 -66 -57 -19 -254 -87 -440 -150 -308
-106 -810 -269 -1018 -331 -116 -34 -562 -156 -573 -156 -5 0 0 11 10 24 90
118 480 652 560 766 122 176 267 410 388 629 l90 162 875 437 c481 241 954
473 1050 516 96 43 184 87 195 97 38 37 26 70 -137 364 -317 574 -434 804
-584 1153 l-78 183 83 252 c283 848 667 2152 816 2762 78 324 175 815 206
1045 7 52 13 96 14 98 1 1 62 -25 136 -57 112 -50 134 -64 137 -83 1 -13 -29
-292 -68 -620 -38 -329 -70 -615 -70 -636 0 -48 14 -62 63 -62 81 0 815 -260
1012 -358 167 -83 351 -230 626 -499 113 -111 195 -183 206 -183 21 0 46 23
56 52 3 9 -21 203 -53 431 -105 736 -137 920 -235 1344 -25 105 -45 196 -45
202 0 13 9 17 180 78 310 110 455 129 869 112 145 -6 274 -8 287 -5 30 8 39
38 21 73 -18 34 -657 668 -822 815 -207 185 -332 277 -610 450 -127 79 -439
260 -515 298 -25 12 -46 24 -48 25 -1 1 25 219 59 485 47 371 59 488 50 506
-9 20 -72 43 -458 170 -246 81 -449 148 -451 149 -1 1 6 98 18 214 26 278 27
271 -12 315 -49 54 -593 314 -988 474 -577 232 -1523 504 -2285 657 -630 126
-1592 269 -2045 305 -380 29 -1351 40 -1775 19z m1075 -4314 c233 -33 389 -67
510 -112 281 -105 661 -331 793 -472 129 -138 255 -420 308 -693 19 -92 23
-145 22 -288 -1 -245 -56 -862 -84 -937 -5 -13 -15 -23 -24 -23 -20 0 -159
142 -190 194 -34 58 -45 140 -52 379 -3 114 -8 206 -10 204 -23 -24 -57 -379
-46 -487 6 -58 10 -69 49 -110 70 -75 134 -244 134 -352 0 -71 -24 -122 -74
-156 -30 -20 -44 -22 -179 -22 -129 0 -148 2 -154 17 -9 23 28 83 67 111 51
34 23 26 -57 -18 -125 -68 -305 -186 -380 -249 -84 -70 -74 -79 -98 89 -9 58
-18 113 -21 123 -7 22 -43 22 -51 0 -4 -10 3 -88 16 -175 12 -87 20 -162 16
-168 -3 -5 -17 -10 -31 -10 -22 0 -24 4 -24 46 l0 46 -42 -54 c-50 -63 -137
-148 -190 -184 -55 -39 -113 -56 -210 -62 -49 -2 -88 -5 -88 -6 0 -1 9 -19 20
-41 11 -22 20 -53 20 -69 l0 -30 28 27 c31 29 77 36 115 16 12 -7 48 -36 79
-66 41 -39 88 -69 162 -104 58 -27 109 -49 113 -49 4 0 -7 13 -25 29 -34 32
-42 65 -17 75 9 3 61 -10 117 -29 56 -19 118 -35 139 -35 34 0 39 -4 58 -43
16 -34 20 -59 19 -117 l-2 -73 47 -42 c45 -40 47 -43 47 -97 0 -61 14 -77 46
-53 14 10 18 27 19 75 0 62 0 63 -47 104 l-48 42 0 73 c0 45 -6 83 -15 102
-12 23 -13 30 -3 33 35 12 250 38 268 33 23 -6 42 17 84 100 40 80 71 185 106
359 35 175 50 214 81 214 32 0 46 -50 69 -255 24 -220 32 -254 69 -315 79
-128 121 -209 126 -245 7 -39 3 -46 -115 -215 -241 -344 -300 -400 -462 -441
-82 -20 -109 -8 -206 90 -95 96 -120 113 -200 130 -90 19 -141 14 -201 -19
-30 -17 -69 -30 -87 -30 -21 0 -41 -8 -53 -21 -34 -37 -83 -170 -94 -254 -12
-98 0 -210 23 -210 12 0 16 24 21 135 5 132 6 137 46 223 23 48 46 87 52 87 5
0 21 -4 35 -10 22 -8 26 -16 26 -47 1 -21 6 -75 13 -120 13 -86 28 -116 48
-96 9 9 7 41 -5 127 -13 85 -14 121 -6 136 21 39 99 39 120 -1 17 -30 29 -185
22 -259 l-7 -65 -55 0 c-30 0 -60 -4 -67 -8 -15 -9 -33 -71 -33 -112 0 -50
-15 -56 -74 -29 -28 13 -56 24 -63 24 -11 0 -39 -65 -45 -105 -5 -34 -41 -29
-94 15 -27 22 -54 40 -60 40 -16 0 -60 -53 -85 -101 -24 -48 -49 -50 -86 -8
-53 59 -56 58 -142 -25 -42 -42 -84 -76 -92 -76 -8 0 -44 30 -79 66 -92 93
-93 93 -141 45 -51 -52 -73 -52 -98 -2 -26 49 -69 101 -85 101 -7 0 -34 -18
-59 -40 -65 -57 -82 -54 -103 21 -9 33 -23 63 -29 65 -7 3 -37 -6 -69 -20 -65
-29 -69 -26 -80 58 -3 27 -13 60 -21 73 -14 20 -22 23 -73 21 l-57 -3 -3 125
c-4 190 21 246 101 226 46 -11 51 -36 32 -163 -12 -83 -13 -119 -6 -126 23
-23 39 18 51 128 15 138 13 131 46 139 34 9 50 -9 90 -103 24 -58 28 -83 33
-201 5 -109 9 -135 21 -135 19 0 28 36 29 115 1 97 -16 181 -53 263 -40 88
-58 107 -100 107 -18 0 -59 14 -90 31 -54 30 -63 31 -130 26 -121 -10 -158
-28 -262 -133 -102 -103 -129 -115 -212 -95 -128 32 -200 87 -317 241 -87 114
-249 349 -258 374 -4 10 -3 35 3 56 9 33 84 175 132 250 25 39 36 91 58 289
25 212 35 255 67 259 32 5 47 -33 83 -209 40 -194 79 -316 128 -399 34 -59 40
-65 67 -62 17 2 89 -6 162 -18 189 -29 241 -27 363 14 56 19 108 32 116 29 24
-9 16 -43 -17 -74 -17 -16 -27 -29 -23 -29 5 0 55 23 112 50 71 34 120 66 160
103 68 65 90 77 135 77 27 0 41 -7 60 -29 l25 -30 5 46 c2 25 14 58 26 74 l22
29 -59 0 c-174 0 -277 55 -421 228 l-61 73 0 -46 c0 -40 -2 -45 -23 -45 -15 0
-45 23 -87 66 -36 36 -94 87 -130 114 -112 83 -389 250 -416 250 -4 0 8 -10
27 -23 39 -26 75 -86 66 -110 -6 -15 -26 -17 -156 -17 l-150 0 -37 32 c-45 40
-64 82 -64 144 0 105 67 283 134 354 40 42 45 53 51 111 11 109 -25 472 -50
497 -3 3 -5 -69 -5 -159 -1 -205 -19 -369 -48 -426 -30 -57 -175 -206 -198
-201 -22 4 -28 28 -48 181 -43 330 -69 766 -55 920 22 253 122 547 256 749 94
143 299 291 628 455 174 87 160 87 185 3 l21 -72 -25 -37 c-14 -20 -64 -80
-111 -133 -47 -53 -85 -105 -85 -115 0 -11 95 -109 230 -237 127 -120 230
-222 230 -225 0 -4 -38 -56 -85 -116 -90 -116 -111 -152 -144 -255 l-21 -64
66 -201 c37 -110 72 -206 79 -214 18 -19 45 -6 45 21 0 13 -28 106 -61 207
l-62 184 22 68 c24 74 68 145 158 255 l59 71 42 -37 c41 -37 42 -39 42 -102 0
-36 3 -113 7 -172 l6 -107 137 -119 138 -120 21 -88 c26 -106 64 -185 132
-275 39 -52 56 -67 73 -65 37 5 29 36 -32 120 -70 96 -84 128 -116 256 -14 51
-31 99 -40 105 -8 7 -68 59 -134 116 l-119 104 -7 171 -7 171 -37 34 c-234
216 -325 301 -424 399 -65 63 -118 117 -118 120 0 2 35 45 79 96 91 106 121
152 121 185 0 13 -9 55 -21 94 -24 81 -27 77 71 108 113 35 281 65 615 109
104 13 287 4 495 -25z m-3648 -3836 c51 -22 123 -57 161 -76 55 -29 67 -40 67
-60 0 -14 -57 -124 -129 -247 -136 -235 -218 -381 -542 -971 -180 -330 -295
-531 -385 -677 -16 -27 -34 -48 -40 -48 -21 0 -289 167 -292 182 -4 22 535
1056 781 1498 218 391 247 440 267 440 11 0 61 -18 112 -41z m6825 -94 c198
-346 410 -742 878 -1640 44 -85 76 -158 73 -166 -6 -15 -271 -179 -289 -179
-22 0 -172 258 -494 845 -290 530 -382 694 -501 896 -61 103 -104 186 -104
202 0 24 12 32 133 90 179 87 179 86 206 84 18 -2 38 -27 98 -132z m-6395
-131 c48 -16 138 -96 138 -122 0 -8 -105 -203 -234 -435 -128 -232 -336 -611
-461 -842 -225 -417 -357 -649 -374 -659 -13 -9 -216 101 -219 119 -2 9 25 67
61 128 36 62 165 301 287 532 262 496 302 567 475 870 73 127 155 274 184 328
58 108 61 109 143 81z m5885 -55 c21 -39 113 -202 204 -362 196 -346 257 -458
459 -842 178 -339 269 -505 322 -594 22 -35 38 -72 36 -83 -2 -13 -35 -36
-106 -74 -57 -30 -108 -51 -113 -48 -17 10 -144 234 -354 624 -115 212 -322
591 -462 842 -139 252 -253 464 -253 471 0 25 96 108 141 122 79 25 85 22 126
-56z m-5551 -98 c5 -5 47 -32 94 -59 319 -184 744 -437 781 -464 18 -13 29
-31 29 -45 0 -32 -56 -140 -77 -151 -10 -5 -53 -12 -95 -15 -113 -8 -163 -35
-285 -153 -63 -60 -103 -107 -103 -119 0 -23 7 -28 539 -352 212 -129 493
-303 625 -387 528 -335 718 -448 919 -551 l117 -60 125 64 c165 84 422 237
850 508 193 121 485 303 650 403 435 264 574 353 580 369 4 10 -32 51 -102
119 -127 125 -176 151 -291 159 -42 3 -86 11 -97 18 -29 18 -79 127 -72 156 8
31 30 45 492 317 468 275 432 255 459 248 37 -9 233 -356 676 -1196 161 -305
317 -600 347 -655 41 -74 53 -103 46 -115 -13 -19 -78 -44 -96 -37 -8 3 -45
60 -82 126 -37 67 -71 124 -76 126 -28 18 -12 -32 48 -146 64 -124 67 -132 53
-156 -21 -37 -746 -463 -788 -463 -13 0 -34 17 -57 46 -49 65 -47 96 10 173
l45 61 0 88 c0 81 -5 101 -59 261 -32 95 -64 178 -70 184 -17 17 -149 -36
-326 -131 -336 -179 -955 -541 -1248 -730 -164 -105 -162 -100 -49 -122 57
-12 63 -11 96 10 49 29 277 52 482 48 l152 -3 113 -57 c128 -64 366 -208 448
-271 69 -53 111 -135 111 -215 0 -69 -10 -87 -62 -107 l-43 -16 3 -142 c5
-232 -22 -365 -111 -542 -76 -153 -166 -265 -282 -352 -79 -59 -136 -88 -259
-128 l-101 -33 0 -50 c-1 -28 -8 -60 -18 -75 -17 -26 -127 -87 -158 -87 -10 0
-110 47 -222 103 -436 221 -515 283 -615 482 -33 67 -90 201 -126 299 -84 224
-181 418 -233 467 -61 58 -129 109 -143 109 -14 0 -82 -51 -143 -109 -51 -47
-147 -239 -222 -441 -65 -176 -143 -351 -190 -425 -69 -109 -204 -201 -563
-382 -111 -57 -210 -103 -220 -103 -27 0 -120 47 -147 74 -21 21 -25 35 -25
84 l0 59 -50 11 c-80 19 -203 70 -267 111 -183 118 -332 332 -409 586 -25 84
-27 103 -28 287 l-1 197 -43 16 c-52 20 -62 38 -62 108 0 78 45 163 113 214
90 68 328 212 446 271 l113 57 152 3 c205 5 433 -18 482 -48 33 -21 39 -22 96
-10 113 22 115 17 -51 123 -317 205 -1094 658 -1337 780 -95 48 -223 92 -234
81 -4 -5 -34 -81 -65 -169 -52 -145 -58 -170 -63 -263 -4 -93 -3 -105 15 -125
42 -47 73 -103 73 -134 0 -39 -56 -117 -88 -121 -23 -4 -101 39 -522 285 -235
138 -280 170 -280 198 0 7 29 68 65 136 39 73 63 129 60 138 -8 21 -18 8 -97
-132 -33 -60 -67 -111 -74 -114 -18 -7 -86 20 -97 38 -6 9 6 41 36 94 24 44
176 330 337 635 427 809 648 1206 685 1232 14 11 49 10 61 -1z m1630 -56 c8
-20 -15 -154 -32 -187 -16 -31 -45 -36 -64 -13 -25 30 3 146 48 198 18 21 41
22 48 2z m1876 -2 c24 -27 46 -76 57 -124 8 -35 7 -49 -5 -66 -22 -34 -52 -29
-68 10 -18 42 -39 173 -31 187 9 15 30 12 47 -7z m-1922 -375 c23 -50 28 -176
8 -196 -18 -18 -42 -15 -73 10 -26 20 -27 24 -23 97 6 92 20 131 48 131 15 0
27 -12 40 -42z m1997 0 c6 -19 15 -62 18 -94 6 -52 4 -62 -14 -81 -31 -33 -71
-41 -88 -18 -15 22 -17 115 -3 167 21 75 67 89 87 26z m-1828 -107 c26 -26 33
-82 22 -180 -12 -107 -24 -122 -80 -96 -72 32 -76 42 -63 151 6 53 18 107 27
120 19 30 67 32 94 5z m1677 -7 c11 -15 22 -64 28 -119 11 -108 7 -118 -65
-150 -56 -26 -67 -12 -79 98 -11 97 -2 164 26 184 30 22 72 16 90 -13z m-1468
-112 c25 -38 25 -280 0 -295 -18 -12 -91 7 -114 31 -20 19 -19 201 1 247 24
58 81 66 113 17z m1274 -13 c14 -26 18 -59 18 -142 l0 -108 -46 -19 c-95 -41
-108 -24 -102 139 3 91 7 122 21 143 33 48 81 42 109 -13z m-1053 -61 c28 -29
35 -73 36 -205 0 -103 -2 -114 -22 -135 -21 -21 -25 -21 -75 -9 -29 8 -66 20
-82 28 -29 15 -29 15 -23 87 10 111 26 171 58 215 34 48 75 55 108 19z m826
-13 c35 -45 52 -105 61 -209 l7 -84 -29 -15 c-16 -8 -53 -20 -82 -28 -49 -12
-54 -12 -74 8 -42 43 -33 290 13 339 33 36 72 32 104 -11z m-586 -29 c40 -43
61 -117 61 -219 0 -55 -5 -102 -13 -117 -12 -23 -18 -25 -84 -24 -99 0 -103 5
-103 121 0 203 66 317 139 239z m321 14 c52 -28 88 -324 44 -361 -8 -6 -45
-14 -82 -17 -90 -6 -95 1 -100 128 -5 110 12 179 55 230 26 31 51 37 83 20z"/>
<path d="M9385 11240 c-38 -10 -92 -28 -118 -39 -43 -18 -48 -24 -45 -48 3
-25 8 -28 75 -39 164 -27 288 -85 558 -260 359 -233 521 -343 549 -373 17 -17
40 -31 53 -31 19 0 23 5 23 33 0 39 -39 126 -81 178 -59 75 -351 306 -546 433
-124 80 -227 132 -300 151 -71 19 -81 18 -168 -5z"/>
<path d="M11543 11245 c-110 -30 -278 -130 -510 -304 -281 -211 -358 -288
-398 -400 -33 -95 -3 -122 65 -57 63 61 697 474 829 540 77 39 211 82 291 93
50 8 55 11 58 36 3 24 -2 30 -45 48 -56 24 -187 59 -217 58 -12 0 -45 -7 -73
-14z"/>
<path d="M10434 9889 c-43 -12 -69 -45 -98 -119 -13 -36 -46 -112 -71 -170
-91 -203 -102 -259 -65 -345 17 -38 28 -50 72 -70 92 -43 109 -36 224 98 23
26 48 47 57 47 9 0 41 -31 72 -69 89 -110 112 -119 203 -76 45 21 56 32 74 71
32 73 22 143 -42 289 -29 66 -68 158 -86 204 -39 97 -63 127 -113 141 -44 12
-184 12 -227 -1z"/>
<path d="M8857 9443 c-18 -18 -1 -55 61 -130 91 -111 180 -189 226 -197 48 -9
114 21 221 101 95 71 119 97 112 118 -11 28 -47 16 -115 -39 -96 -77 -162
-116 -195 -116 -22 0 -45 16 -99 68 -39 37 -91 94 -116 127 -58 75 -76 88 -95
68z"/>
<path d="M12152 9378 c-33 -40 -89 -101 -125 -135 -92 -89 -103 -87 -275 44
-85 65 -115 76 -127 46 -8 -21 41 -68 148 -144 146 -103 192 -101 309 14 98
95 170 191 166 220 -6 43 -34 30 -96 -45z"/>
<path d="M10200 9095 c0 -9 8 -30 17 -48 14 -26 17 -59 18 -177 0 -138 1 -145
20 -145 19 0 20 9 26 130 5 89 12 144 24 173 14 34 15 46 6 55 -10 9 -17 7
-31 -10 l-18 -22 -12 29 c-13 32 -50 42 -50 15z"/>
<path d="M10851 9084 c-11 -26 -12 -26 -32 -8 -15 13 -22 15 -31 6 -9 -9 -7
-21 6 -49 14 -28 20 -72 25 -173 6 -126 7 -135 26 -135 19 0 20 8 25 155 4
120 9 162 22 186 10 17 14 34 11 38 -15 14 -41 4 -52 -20z"/>
<path d="M10476 8902 c0 -195 1 -197 22 -200 22 -3 22 -1 24 130 4 223 -1 268
-30 268 -16 0 -17 -17 -16 -198z"/>
<path d="M10585 9078 c-3 -13 -4 -102 -3 -198 3 -167 4 -175 23 -175 19 0 20
7 20 197 0 181 -1 198 -17 198 -10 0 -20 -10 -23 -22z"/>
<path d="M7063 9383 c-8 -21 28 -50 117 -93 73 -35 104 -35 98 2 -2 16 -25 34
-83 65 -86 46 -122 53 -132 26z"/>
<path d="M13905 9357 c-58 -31 -81 -49 -83 -65 -6 -38 25 -37 110 4 86 42 114
65 105 89 -10 25 -48 17 -132 -28z"/>
<path d="M7507 9163 c-4 -3 -7 -15 -7 -25 0 -13 21 -29 72 -53 63 -30 74 -33
87 -21 21 22 8 41 -52 75 -53 30 -86 38 -100 24z"/>
<path d="M13492 9138 c-59 -34 -72 -52 -51 -74 13 -12 24 -9 87 21 61 29 72
38 72 60 0 21 -5 25 -27 25 -16 0 -52 -14 -81 -32z"/>
<path d="M7972 9011 c-9 -10 -22 -26 -28 -36 -9 -17 -14 -18 -42 -6 -36 15
-62 9 -62 -13 0 -15 9 -26 43 -49 16 -11 12 -23 -58 -147 -80 -144 -91 -180
-52 -180 19 0 34 19 84 107 33 59 64 108 69 110 6 2 127 -69 269 -157 155 -96
268 -160 280 -158 12 2 21 12 23 24 3 18 -38 47 -260 184 -145 90 -267 166
-272 171 -5 4 5 32 23 63 17 31 31 64 31 75 0 27 -27 34 -48 12z"/>
<path d="M13093 9023 c-21 -7 -15 -35 18 -97 17 -32 27 -61 23 -66 -5 -4 -124
-78 -264 -165 -140 -87 -258 -163 -262 -169 -13 -18 -4 -41 17 -44 12 -2 125
62 280 158 143 88 264 159 270 157 5 -2 37 -52 69 -110 49 -88 64 -107 83
-107 22 0 27 9 24 37 -1 6 -35 71 -76 145 -69 122 -74 134 -58 145 36 25 44
35 41 51 -4 18 -34 20 -73 7 -16 -5 -24 0 -35 20 -16 30 -39 45 -57 38z"/>
<path d="M7675 8186 c-40 -17 -82 -67 -96 -115 -23 -78 15 -160 91 -198 55
-29 101 -29 157 -2 124 60 124 254 0 313 -42 19 -110 20 -152 2z m143 -54 c72
-47 68 -178 -8 -217 -105 -54 -220 33 -190 145 23 85 123 122 198 72z"/>
<path d="M13268 8180 c-50 -27 -80 -73 -86 -131 -6 -64 2 -92 40 -135 144
-163 396 28 275 207 -52 77 -147 102 -229 59z m162 -49 c14 -9 33 -34 44 -55
24 -50 15 -99 -29 -143 -28 -28 -40 -33 -79 -33 -85 0 -136 47 -136 125 0 54
25 94 73 116 47 21 87 18 127 -10z"/>
<path d="M8139 7959 c-46 -79 -79 -165 -79 -205 0 -43 31 -83 100 -128 109
-72 149 -91 161 -79 6 6 17 49 24 95 7 46 23 109 35 141 l22 58 74 -41 c41
-22 109 -59 152 -81 157 -85 359 -199 832 -472 584 -337 887 -507 903 -506 7
0 34 10 62 23 l50 22 -45 26 c-25 14 -117 65 -205 113 -88 49 -392 222 -677
386 -842 487 -1273 719 -1332 719 -33 0 -38 -4 -77 -71z"/>
<path d="M12775 7991 c-38 -21 -153 -82 -255 -136 -258 -136 -386 -208 -935
-525 -757 -437 -947 -542 -1300 -715 -275 -135 -387 -162 -621 -151 -154 8
-173 2 -160 -48 8 -33 44 -44 173 -52 226 -14 369 25 737 203 133 63 243 119
246 122 3 4 91 54 195 111 105 57 393 220 640 363 706 408 1162 663 1198 670
15 3 57 -129 64 -200 3 -35 12 -71 18 -80 12 -16 17 -15 66 11 163 88 203 131
195 209 -5 45 -50 152 -95 225 -29 45 -74 44 -166 -7z"/>
<path d="M11350 6461 c-104 -5 -120 -9 -167 -36 -29 -16 -53 -33 -53 -37 0
-23 356 -31 423 -9 41 14 58 50 37 76 -13 16 -25 16 -240 6z"/>
<path d="M8645 6323 c-193 -105 -255 -144 -277 -174 -17 -22 -18 -30 -7 -70 9
-28 14 -137 16 -307 3 -243 5 -263 21 -260 14 3 19 23 28 118 15 150 24 181
83 278 63 106 62 102 44 166 -15 53 -15 56 8 98 19 33 46 57 119 105 131 85
140 92 140 108 0 27 -34 15 -175 -62z"/>
<path d="M12280 6385 c0 -16 9 -23 140 -108 73 -48 100 -72 119 -105 23 -42
23 -45 8 -98 -18 -62 -17 -68 31 -143 67 -105 82 -151 95 -288 10 -107 15
-128 29 -131 16 -3 18 18 21 260 2 168 7 279 15 307 21 74 3 89 -273 239 -150
82 -185 95 -185 67z"/>
<path d="M9175 6320 c-193 -23 -374 -138 -469 -299 -188 -321 -72 -721 256
-887 88 -44 172 -64 280 -64 114 0 176 14 273 60 133 64 227 157 290 285 47
95 65 172 65 280 0 248 -131 457 -355 565 -109 53 -225 73 -340 60z"/>
<path d="M11778 6318 c-143 -17 -272 -84 -376 -193 -116 -121 -172 -264 -172
-434 0 -172 58 -309 185 -437 126 -128 262 -184 443 -184 107 0 187 18 277 61
237 116 383 386 345 643 -51 350 -355 586 -702 544z"/>
<path d="M8812 5118 c-7 -7 -12 -20 -12 -30 0 -25 112 -112 199 -156 l75 -37
160 0 c188 0 241 11 323 65 83 54 105 77 101 108 -5 40 -41 41 -89 2 -97 -78
-210 -107 -380 -97 -110 6 -154 23 -264 107 -67 51 -92 59 -113 38z"/>
<path d="M12179 5081 c-36 -27 -90 -61 -119 -77 -52 -27 -61 -29 -190 -29
-169 0 -219 12 -310 77 -80 55 -113 60 -118 16 -4 -31 27 -63 108 -113 85 -51
126 -59 310 -60 159 0 167 1 224 28 63 29 169 101 200 135 13 15 16 29 12 47
-10 39 -44 32 -117 -24z"/>
</g>
</svg>
